<svg width="25" height="32" viewBox="0 0 25 32" fill="none" xmlns="http://www.w3.org/2000/svg">
<g clip-path="url(#clip0_88_582)">
<path fill-rule="evenodd" clip-rule="evenodd" d="M21 7.75H13.5V6.25C13.5 5.83579 13.1642 5.5 12.75 5.5C12.3358 5.5 12 5.83579 12 6.25V7.75H4.5C3.67157 7.75 3 8.42157 3 9.25V20.5C3 21.3284 3.67157 22 4.5 22H8.19L6.16406 24.5312C5.90518 24.8549 5.95765 25.3271 6.28125 25.5859C6.60485 25.8448 7.07705 25.7924 7.33594 25.4688L10.11 22H15.39L18.1641 25.4688C18.4229 25.7924 18.8951 25.8448 19.2188 25.5859C19.5424 25.3271 19.5948 24.8549 19.3359 24.5312L17.31 22H21C21.8284 22 22.5 21.3284 22.5 20.5V9.25C22.5 8.42157 21.8284 7.75 21 7.75ZM21 20.5H4.5V9.25H21V20.5ZM10.5 15.25V17.5C10.5 17.9142 10.1642 18.25 9.75 18.25C9.33579 18.25 9 17.9142 9 17.5V15.25C9 14.8358 9.33579 14.5 9.75 14.5C10.1642 14.5 10.5 14.8358 10.5 15.25ZM13.5 13.75V17.5C13.5 17.9142 13.1642 18.25 12.75 18.25C12.3358 18.25 12 17.9142 12 17.5V13.75C12 13.3358 12.3358 13 12.75 13C13.1642 13 13.5 13.3358 13.5 13.75ZM16.5 12.25V17.5C16.5 17.9142 16.1642 18.25 15.75 18.25C15.3358 18.25 15 17.9142 15 17.5V12.25C15 11.8358 15.3358 11.5 15.75 11.5C16.1642 11.5 16.5 11.8358 16.5 12.25Z" fill="#ADADAD"/>
</g>
<defs>
<clipPath id="clip0_88_582">
<rect width="24" height="24" fill="white" transform="translate(0.75 4)"/>
</clipPath>
</defs>
</svg>
