<svg width="25" height="32" viewBox="0 0 25 32" fill="none" xmlns="http://www.w3.org/2000/svg">
<g clip-path="url(#clip0_88_575)">
<path fill-rule="evenodd" clip-rule="evenodd" d="M21.25 8.5H15.25C14.0697 8.5 12.9582 9.05573 12.25 10C11.5418 9.05573 10.4303 8.5 9.25 8.5H3.25C2.42157 8.5 1.75 9.17157 1.75 10V22C1.75 22.8284 2.42157 23.5 3.25 23.5H9.25C10.4926 23.5 11.5 24.5074 11.5 25.75C11.5 26.1642 11.8358 26.5 12.25 26.5C12.6642 26.5 13 26.1642 13 25.75C13 24.5074 14.0074 23.5 15.25 23.5H21.25C22.0784 23.5 22.75 22.8284 22.75 22V10C22.75 9.17157 22.0784 8.5 21.25 8.5ZM9.25 22H3.25V10H9.25C10.4926 10 11.5 11.0074 11.5 12.25V22.75C10.8515 22.262 10.0616 21.9987 9.25 22ZM21.25 22H15.25C14.4384 21.9987 13.6485 22.262 13 22.75V12.25C13 11.0074 14.0074 10 15.25 10H21.25V22Z" fill="#ADADAD"/>
</g>
<defs>
<clipPath id="clip0_88_575">
<rect width="24" height="24" fill="white" transform="translate(0.25 4)"/>
</clipPath>
</defs>
</svg>
