<svg width="25" height="32" viewBox="0 0 25 32" fill="none" xmlns="http://www.w3.org/2000/svg">
<g clip-path="url(#clip0_88_589)">
<path fill-rule="evenodd" clip-rule="evenodd" d="M21.8988 23.875C20.4709 21.4066 18.2706 19.6366 15.7028 18.7975C18.3135 17.2433 19.5641 14.1364 18.7582 11.2069C17.9522 8.27741 15.2883 6.24745 12.25 6.24745C9.21167 6.24745 6.54779 8.27741 5.74182 11.2069C4.93585 14.1364 6.18645 17.2433 8.79719 18.7975C6.22938 19.6356 4.02906 21.4056 2.60125 23.875C2.4587 24.1074 2.45353 24.3989 2.58773 24.6363C2.72194 24.8736 2.97438 25.0194 3.24702 25.0171C3.51967 25.0147 3.76958 24.8646 3.89969 24.625C5.66594 21.5725 8.78781 19.75 12.25 19.75C15.7122 19.75 18.8341 21.5725 20.6003 24.625C20.7304 24.8646 20.9803 25.0147 21.253 25.0171C21.5256 25.0194 21.7781 24.8736 21.9123 24.6363C22.0465 24.3989 22.0413 24.1074 21.8988 23.875ZM7 13C7 10.1005 9.3505 7.75 12.25 7.75C15.1495 7.75 17.5 10.1005 17.5 13C17.5 15.8995 15.1495 18.25 12.25 18.25C9.35179 18.2469 7.0031 15.8982 7 13Z" fill="#ADADAD"/>
</g>
<defs>
<clipPath id="clip0_88_589">
<rect width="24" height="24" fill="white" transform="translate(0.25 4)"/>
</clipPath>
</defs>
</svg>
